<!-- avatar sprite -->
<svg xmlns="http://www.w3.org/2000/svg" style="display: none;">
  <symbol id="avatar" viewBox="0 0 496 512">
    <!-- Outer circle (Background) -->
    <circle cx="248" cy="256" r="248" fill="#4285F4" /> <!-- Google Blue -->
    <!-- Inner circle (Face) -->
    <circle cx="248" cy="176" r="96" fill="var(--color-white)" /> <!-- White Face -->
    <!-- Shoulders -->
    <path d="M120 384c40-48 104-72 128-72s88 24 128 72H120z" fill="var(--color-white)" /> <!-- White Shoulders -->
  </symbol>


  <!-- star sprite -->
  <symbol id="star" viewBox="0 0 576 512">
    <!-- Star Shape -->
    <path
      d="M316.7 17.8c-5.2-10.6-20.4-10.6-25.6 0L194.8 150.2 47.9 171.5c-11.7 1.7-16.4 16-7.9 24.3l105.7 103L126.7 440c-2 11.6 10.2 20.4 20.5 14.9L288 371.2l140.8 83.8c10.3 5.5 22.5-3.3 20.5-14.9l-18.9-140.3 105.7-103c8.5-8.3 3.8-22.6-7.9-24.3l-146.9-21.3L316.7 17.8z"
      fill="#F4B400" /> <!-- Google Yellow -->
  </symbol>

  <!-- menu sprite -->
  <symbol id="menu-icon" viewBox="0 0 24 24">
    <path d="M3 6h18v2H3zm0 5h18v2H3zm0 5h18v2H3z" fill="var(--color-white)" />
  </symbol>

  <!-- comment sprite -->
  <symbol id="comments-icon" viewBox="0 0 576 512">
    <path
      d="M532 386c28.4 0 52-23.6 52-52V88c0-28.4-23.6-52-52-52H52C23.6 36 0 59.6 0 88v246c0 28.4 23.6 52 52 52h76v83c0 12.8 15.5 19.5 24.5 10.2L230 386h302zm0-50H212.1L144 434.4V336H52c-3.3 0-6-2.7-6-6V88c0-3.3 2.7-6 6-6h480c3.3 0 6 2.7 6 6v246c0 3.3-2.7 6-6 6z" />
  </symbol>

  <!-- map marker sprite -->
  <symbol id="map-marker-icon" viewBox="0 0 384 512">
    <path
      d="M172.268 501.67c-145.25-190.2-172.25-232.05-172.25-309.67C0 86.13 86 0 192 0s192 86.13 192 192c0 77.63-27 119.47-172.25 309.67-9.62 12.62-28.88 12.62-38.482 0zM192 272a80 80 0 1 0-80-80 80 80 0 0 0 80 80z" />
  </symbol>

  <!-- Phone Icon -->
  <symbol id="phone-icon" viewBox="0 0 512 512">
    <path
      d="M493.4 24.6l-104-24c-11.5-2.6-23.4 2.4-28.9 12.9l-48 104c-4.3 9.2-2.4 20.1 4.6 27.2l56 56c-36.3 60.4-94.5 118.7-154.9 154.9l-56-56c-7.2-7.2-18-8.9-27.2-4.6l-104 48c-10.5 4.8-15.5 16.7-12.9 28.9l24 104c2.3 9.7 10.6 16.6 20.5 16.6C392.6 512 512 392.6 512 136c0-9.9-6.9-18.2-16.6-20.5z" />
  </symbol>

  <!-- Book Icon -->
  <symbol id="book-icon" viewBox="0 0 448 512">
    <path
      d="M96 64C96 46.33 110.3 32 128 32H384C401.7 32 416 46.33 416 64V352C416 369.7 401.7 384 384 384H128C110.3 384 96 369.7 96 352V64zM384 416C419.3 416 448 386.5 448 352V64C448 28.65 419.3 0 384 0H128C92.65 0 64 28.65 64 64V384C64 419.3 92.65 448 128 448H368C376.8 448 384 455.2 384 464C384 472.8 376.8 480 368 480H80C71.16 480 64 472.8 64 464C64 455.2 71.16 448 80 448C115.3 448 144 419.3 144 384V64C144 28.65 115.3 0 80 0C71.16 0 64 7.164 64 16C64 24.84 71.16 32 80 32C110.3 32 128 46.33 128 64V416H368z" />
  </symbol>

  <!-- Arrow-Up Icon -->
  <symbol id="arrow-up-icon" viewBox="0 0 448 512">
    <path
      d="M34.91 286.1c-9.438-9.469-9.375-24.81 .125-34.19l184-184c9.375-9.344 24.56-9.344 33.94 0l184 184c9.5 9.375 9.562 24.72 .125 34.19c-9.406 9.5-24.66 9.531-34.16 .125L240 137.4V488c0 13.25-10.75 24-24 24s-24-10.75-24-24V137.4L69.06 286.2C59.47 295.6 44.22 295.5 34.91 286.1z"
      fill="#FFFFFF" />
  </symbol>

  <symbol id="google-icon" viewBox="0 0 488 512">
    <path
      d="M488 261.8c0-17.8-1.6-35.6-4.8-52.8H249.2v99.9h136.2c-5.9 32.3-23.7 59.6-50.5 78.1l82.2 64c47.9-44.2 71.9-109.5 71.9-189.2z"
      fill="#4285F4" />
    <path
      d="M249.2 512c65.2 0 119.9-21.6 159.8-58.8l-82.2-64c-22.9 15.4-52.2 24.7-77.6 24.7-59.7 0-110.3-40.2-128.4-94.6l-83.2 65.4c40.5 81.2 124.4 127.3 211.6 127.3z"
      fill="#34A853" />
    <path
      d="M120.8 319.3C110.5 288.4 110.5 259 120.8 228.7l-83.2-65.4C14.4 200.1 0 238.1 0 278.9c0 40.8 14.4 78.8 37.6 115.5l83.2-65.4z"
      fill="#FBBC05" />
    <path
      d="M249.2 97.8c44.5 0 72.3 19.3 88.8 35.9l66.4-66.4C364.3 29.3 314.4 0 249.2 0 161.9 0 77.9 46.1 37.6 127.3l83.2 65.4c18.1-54.4 68.7-94.6 128.4-94.6z"
      fill="#EA4335" />
  </symbol>

<symbol id="icon-personal" viewBox="0 0 24 24">
      <!-- SVG content for personal icon -->
      <path d="M12 12c2.7 0 4.9-2.2 4.9-4.9S14.7 2.2 12 2.2 7.1 4.4 7.1 7.1 9.3 12 12 12zm0 2.2c-3 0-9 1.5-9 4.5V21h18v-2.3c0-3-6-4.5-9-4.5z"/>
    </symbol>
  <symbol id="icon-service" viewBox="0 0 64 64">
    <!-- SVG path/data for Service Icon -->
    <path d="M32 12a20 20 0 1 0 20 20A20.023 20.023 0 0 0 32 12zm0 36a16 16 0 1 1 16-16 16.018 16.018 0 0 1-16 16z"></path>
  </symbol>
  <symbol id="icon-property" viewBox="0 0 24 24">
      <!-- SVG content for property icon -->
      <path d="M10 20v-6h4v6h5v-8h3L12 3 2 12h3v8z"/>
    </symbol>
  <symbol id="icon-details" viewBox="0 0 64 64">
    <!-- SVG path/data for Details Icon -->
    <path d="M32 12a20 20 0 1 0 20 20A20.023 20.023 0 0 0 32 12zm0 4a16 16 0 1 1-16 16 16.018 16.018 0 0 1 16-16zm0 24a8 8 0 1 0-8-8 8.009 8.009 0 0 0 8 8z"></path>
  </symbol>
  <symbol id="icon-check" viewBox="0 0 64 64">
    <!-- SVG path/data for Checkmark Icon -->
    <path d="M16 32l12 12 24-24"></path>
  </symbol>


</svg>